<svg width="27" height="27" viewBox="0 0 27 27" fill="none" xmlns="http://www.w3.org/2000/svg">
<path d="M17.3079 15.6759H16.4484L16.1438 15.3822C16.8237 14.5923 17.3206 13.6619 17.599 12.6575C17.8773 11.6532 17.9303 10.5997 17.754 9.57247C17.2426 6.54794 14.7185 4.13266 11.6722 3.76275C10.6013 3.62726 9.51349 3.73857 8.49215 4.08815C7.47081 4.43773 6.54298 5.01632 5.77965 5.77965C5.01632 6.54298 4.43773 7.47081 4.08815 8.49215C3.73857 9.51349 3.62726 10.6013 3.76275 11.6722C4.13266 14.7185 6.54794 17.2426 9.57247 17.754C10.5997 17.9303 11.6532 17.8773 12.6575 17.599C13.6619 17.3206 14.5923 16.8237 15.3822 16.1438L15.6759 16.4484V17.3079L20.2998 21.9317C20.7459 22.3778 21.4748 22.3778 21.9209 21.9317C22.3669 21.4857 22.3669 20.7567 21.9209 20.3107L17.3079 15.6759ZM10.7801 15.6759C8.07108 15.6759 5.88428 13.4891 5.88428 10.7801C5.88428 8.07109 8.07108 5.88428 10.7801 5.88428C13.4891 5.88428 15.6759 8.07109 15.6759 10.7801C15.6759 13.4891 13.4891 15.6759 10.7801 15.6759Z" fill="#F4F4F4"/>
</svg>
